<?xml version="1.0" standalone="no"?>
<!DOCTYPE svg PUBLIC "-//W3C//DTD SVG 20010904//EN"
 "http://www.w3.org/TR/2001/REC-SVG-20010904/DTD/svg10.dtd">
<svg version="1.0" xmlns="http://www.w3.org/2000/svg"
 width="50.000000pt" height="50.000000pt" viewBox="0 0 50.000000 50.000000"
 preserveAspectRatio="xMidYMid meet">

<g transform="translate(0.000000,50.000000) scale(0.100000,-0.100000)"
fill="#000000" stroke="none">
<path d="M138 489 c-10 -5 -18 -20 -18 -33 0 -13 -13 -52 -29 -87 -15 -35 -43
-108 -61 -162 -36 -111 -33 -127 30 -127 25 0 50 9 79 30 46 33 169 110 176
110 8 0 45 -78 45 -94 0 -35 -64 -31 -73 4 -7 27 -53 27 -67 0 -14 -27 21 -65
48 -51 9 5 32 6 50 4 38 -6 62 10 62 42 0 12 -25 76 -56 141 -62 130 -62 130
-69 122 -3 -3 6 -35 21 -72 15 -36 26 -67 23 -69 -2 -2 -39 -28 -83 -57 -95
-63 -164 -96 -178 -82 -6 6 11 64 45 158 45 126 56 149 75 152 34 5 48 39 26
63 -20 22 -22 22 -46 8z m37 -19 c10 -16 -16 -43 -28 -31 -11 11 -2 41 12 41
5 0 13 -5 16 -10z m94 -366 c-9 -11 -15 -12 -25 -3 -11 9 -12 15 -3 25 9 11
15 12 25 3 11 -9 12 -15 3 -25z"/>
<path d="M232 472 c-10 -10 -34 -59 -52 -109 -25 -67 -40 -94 -57 -102 -33
-15 -31 -58 3 -73 23 -11 29 -10 45 11 14 17 16 27 9 42 -8 14 -4 38 16 95 35
98 52 119 88 110 24 -6 37 -26 88 -133 58 -121 60 -128 48 -162 -12 -32 -11
-36 10 -53 20 -16 25 -17 44 -5 29 19 32 53 7 69 -12 7 -21 16 -21 21 0 4 -26
62 -58 130 -75 158 -125 204 -170 159z m-72 -247 c0 -8 -6 -15 -14 -15 -17 0
-28 14 -19 24 12 12 33 6 33 -9z m310 -101 c0 -8 -7 -14 -15 -14 -15 0 -21 21
-9 33 10 9 24 -2 24 -19z"/>
</g>
</svg>
